<?xml version="1.0" encoding="UTF-8"?> <svg xmlns="http://www.w3.org/2000/svg" xmlns:xlink="http://www.w3.org/1999/xlink" id="Group_60" data-name="Group 60" width="16.847" height="16.848" viewBox="0 0 16.847 16.848"><defs><clipPath id="clip-path"><rect id="Rectangle_233" data-name="Rectangle 233" width="16.847" height="16.848" fill="#fff"></rect></clipPath></defs><g id="Group_61" data-name="Group 61" transform="translate(0 0)" clip-path="url(#clip-path)"><path id="Path_54" data-name="Path 54" d="M8.623,0C6.281,0,5.987.01,5.068.052a6.327,6.327,0,0,0-2.093.4,4.222,4.222,0,0,0-1.527.994,4.233,4.233,0,0,0-1,1.527,6.3,6.3,0,0,0-.4,2.093C.011,5.987,0,6.281,0,8.622s.01,2.635.052,3.554a6.337,6.337,0,0,0,.4,2.093A4.225,4.225,0,0,0,1.447,15.8a4.222,4.222,0,0,0,1.527,1,6.333,6.333,0,0,0,2.093.4c.92.042,1.213.052,3.555.052s2.635-.01,3.555-.052a6.336,6.336,0,0,0,2.094-.4,4.418,4.418,0,0,0,2.521-2.522,6.391,6.391,0,0,0,.4-2.093c.041-.92.052-1.213.052-3.555s-.011-2.636-.052-3.555a6.388,6.388,0,0,0-.4-2.093,4.232,4.232,0,0,0-1-1.527A4.214,4.214,0,0,0,14.27.453a6.347,6.347,0,0,0-2.094-.4C11.255.01,10.963,0,8.62,0ZM7.849,1.554h.773c2.3,0,2.575.008,3.484.05a4.773,4.773,0,0,1,1.6.3,2.666,2.666,0,0,1,.991.645,2.676,2.676,0,0,1,.645.992,4.764,4.764,0,0,1,.3,1.6c.041.909.05,1.182.05,3.483s-.009,2.574-.05,3.483a4.769,4.769,0,0,1-.3,1.6,2.859,2.859,0,0,1-1.636,1.635,4.756,4.756,0,0,1-1.6.3c-.909.041-1.182.05-3.484.05s-2.575-.009-3.484-.05a4.783,4.783,0,0,1-1.6-.3,2.671,2.671,0,0,1-.992-.645A2.672,2.672,0,0,1,1.9,13.7a4.764,4.764,0,0,1-.3-1.6c-.041-.909-.05-1.182-.05-3.485s.008-2.574.05-3.483a4.774,4.774,0,0,1,.3-1.6,2.672,2.672,0,0,1,.645-.992A2.676,2.676,0,0,1,3.538,1.9a4.763,4.763,0,0,1,1.6-.3c.8-.036,1.1-.047,2.711-.049Zm5.376,1.432A1.035,1.035,0,1,0,14.26,4.02a1.035,1.035,0,0,0-1.035-1.034Zm-4.6,1.209A4.428,4.428,0,1,0,13.05,8.622,4.428,4.428,0,0,0,8.623,4.194Zm0,1.554A2.874,2.874,0,1,1,5.749,8.622,2.874,2.874,0,0,1,8.623,5.748" transform="translate(-0.208 -0.201)" fill="#fff"></path></g></svg> 