<?xml version="1.0" encoding="UTF-8"?> <svg xmlns="http://www.w3.org/2000/svg" xmlns:xlink="http://www.w3.org/1999/xlink" width="17.246" height="17.231" viewBox="0 0 17.246 17.231"><defs><clipPath id="clip-path"><rect id="Rectangle_234" data-name="Rectangle 234" width="17.246" height="17.231" fill="#fff"></rect></clipPath></defs><g id="Group_63" data-name="Group 63" clip-path="url(#clip-path)"><path id="Path_55" data-name="Path 55" d="M52.489.042l-3.663,0h0l3.663,0" transform="translate(-40.197 -0.034)" fill="#fff"></path><path id="Path_56" data-name="Path 56" d="M17.246,1.237a1.291,1.291,0,0,0-.014-.192A1.265,1.265,0,0,0,15.955,0q-1.831.01-3.663.008l-3.663,0H6.257c-1.662,0-3.324.01-4.986,0A1.27,1.27,0,0,0,0,1.278q.009,7.34.005,14.68a1.421,1.421,0,0,0,.055.4,1.209,1.209,0,0,0,1.227.876H16.052A1.226,1.226,0,0,0,17.246,16q0-7.381,0-14.761M5.132,10.568q0,1.968,0,3.935c0,.214,0,.215-.216.215-.731,0-1.463,0-2.194,0-.14,0-.2-.032-.2-.189q.007-3.951,0-7.9c0-.151.046-.19.192-.188q1.113.01,2.226,0c.151,0,.191.047.191.193,0,1.312,0,2.623,0,3.935m-1.3-5.229a1.5,1.5,0,1,1,1.5-1.488,1.483,1.483,0,0,1-1.5,1.488m10.692,9.382q-1.1-.01-2.194,0c-.169,0-.208-.062-.207-.218,0-1.355.009-2.71,0-4.065a4.831,4.831,0,0,0-.108-1.02,1.053,1.053,0,0,0-1.122-.887,2.282,2.282,0,0,0-.574.053,1.28,1.28,0,0,0-.948,1.158,4.959,4.959,0,0,0-.067.832q-.01,1.968,0,3.936c0,.166-.049.211-.21.209q-1.1-.011-2.194,0c-.149,0-.206-.038-.206-.2q.007-3.944,0-7.888c0-.146.04-.194.191-.193q1.065.011,2.13,0c.155,0,.192.054.188.2-.008.294,0,.589,0,.932a2.652,2.652,0,0,1,1.6-1.226,3.582,3.582,0,0,1,2.421.2,2.436,2.436,0,0,1,1.338,1.828,7.571,7.571,0,0,1,.166,1.759q-.006,2.194,0,4.388c0,.156-.046.2-.2.2" transform="translate(0 0)" fill="#fff"></path><path id="Path_57" data-name="Path 57" d="M38.1,53.187q0,1.967,0,3.935,0-1.967,0-3.935c0-1.312,0-2.623,0-3.935,0,1.312,0,2.623,0,3.935" transform="translate(-32.969 -42.618)" fill="#fff"></path></g></svg> 