<?xml version="1.0" encoding="UTF-8"?> <svg xmlns="http://www.w3.org/2000/svg" xmlns:xlink="http://www.w3.org/1999/xlink" id="Logo" width="150.886" height="29.465" viewBox="0 0 150.886 29.465"><defs><clipPath id="clip-path"><path id="Path_2" data-name="Path 2" d="M0,12.893H150.886V-16.571H0Z" transform="translate(0 16.571)" fill="#fff"></path></clipPath></defs><g id="Group_2" data-name="Group 2" clip-path="url(#clip-path)"><g id="Group_1" data-name="Group 1" transform="translate(34.141 0.024)"><path id="Path_1" data-name="Path 1" d="M2.575,2.39v8.069H6.483a5.464,5.464,0,0,0,3.7-1.134,3.676,3.676,0,0,0,1.3-2.9,3.676,3.676,0,0,0-1.3-2.9,5.464,5.464,0,0,0-3.7-1.134ZM13.753,26.344,5.139,15.923H2.575V26.344H-3.309V-3.072H6.526a13.214,13.214,0,0,1,5.884,1.218,8.88,8.88,0,0,1,3.782,3.362,9.278,9.278,0,0,1,1.3,4.916,9.14,9.14,0,0,1-1.513,5.233,9.194,9.194,0,0,1-4.285,3.382l9.37,11.3Z" transform="translate(3.309 3.072)" fill="#fff"></path></g></g><g id="Group_3" data-name="Group 3" transform="translate(63.062 0.023)"><path id="Path_3" data-name="Path 3" d="M0,0V29.417H20.286V23.953H6.061V17.019h13.36V11.557H6.061V5.464H19.853V0Z" fill="#fff"></path></g><g id="Group_4" data-name="Group 4" transform="translate(89.505 0.023)"><path id="Path_4" data-name="Path 4" d="M9.888,0V19.373L-7.777,0h-4.112V29.417h5.845V10.087l17.663,19.33h4.114V0Z" transform="translate(11.889)" fill="#fff"></path></g><g id="Group_5" data-name="Group 5" transform="translate(11.505 0)"><path id="Path_5" data-name="Path 5" d="M0,0,11.578,29.464h6.673L6.673,0Z" fill="#fff"></path></g><g id="Group_6" data-name="Group 6" transform="translate(0 10.111)"><path id="Path_6" data-name="Path 6" d="M3.346,0-4.023,19.353H2.648L10.019,0Z" transform="translate(4.023)" fill="#fff"></path></g><g id="Group_7" data-name="Group 7" transform="translate(132.635 0)"><path id="Path_7" data-name="Path 7" d="M0,0,11.578,29.464h6.673L6.671,0Z" fill="#fff"></path></g><g id="Group_8" data-name="Group 8" transform="translate(121.13 10.111)"><path id="Path_8" data-name="Path 8" d="M3.346,0-4.023,19.353H2.648L10.017,0Z" transform="translate(4.023)" fill="#fff"></path></g></svg> 