<svg xmlns="http://www.w3.org/2000/svg" width="21.124" height="25.495" viewBox="0 0 21.124 25.495">
  <path id="Path_67" data-name="Path 67" d="M172.59,25.62l-7.466-9.032s-1.666-2.258-2.222,0,0,9.032,0,9.032h-5.1V.125h8.523a11.449,11.449,0,0,1,5.1,1.056A7.694,7.694,0,0,1,174.7,4.1a8.044,8.044,0,0,1,1.129,4.261,7.926,7.926,0,0,1-1.311,4.534,7.98,7.98,0,0,1-3.715,2.932l8.122,9.8ZM162.9,4.86v6.993h3.387a4.729,4.729,0,0,0,3.205-.983,3.184,3.184,0,0,0,1.129-2.513,3.185,3.185,0,0,0-1.129-2.513,4.73,4.73,0,0,0-3.205-.983Z" transform="translate(-157.803 -0.125)" fill="#fff"/>
</svg>
